<svg width="900" height="675" viewBox="0 0 900 675" fill="none" xmlns="http://www.w3.org/2000/svg" role="img" aria-labelledby="title desc">
  <title id="title">Web design illustration</title>
  <desc id="desc">A colourful illustration showing people designing a responsive website in a modern workspace.</desc>
  <defs>
    <linearGradient id="bg" x1="115" y1="70" x2="764" y2="583" gradientUnits="userSpaceOnUse">
      <stop stop-color="#E8F4FF"/>
      <stop offset="1" stop-color="#EDF8FF"/>
    </linearGradient>
    <linearGradient id="panel" x1="214" y1="123" x2="696" y2="497" gradientUnits="userSpaceOnUse">
      <stop stop-color="#FFFFFF"/>
      <stop offset="1" stop-color="#F7FBFF"/>
    </linearGradient>
    <linearGradient id="accent" x1="591" y1="161" x2="743" y2="327" gradientUnits="userSpaceOnUse">
      <stop stop-color="#1E90FF"/>
      <stop offset="1" stop-color="#0B5FC7"/>
    </linearGradient>
  </defs>
  <rect width="900" height="675" rx="42" fill="url(#bg)"/>
  <circle cx="158" cy="128" r="62" fill="#D9ECFF"/>
  <circle cx="754" cy="548" r="74" fill="#DFF6EE"/>
  <rect x="180" y="132" width="415" height="266" rx="28" fill="url(#panel)" stroke="#DCE8F5" stroke-width="2"/>
  <rect x="180" y="132" width="415" height="48" rx="28" fill="#10203A"/>
  <circle cx="215" cy="156" r="7" fill="#F79400"/>
  <circle cx="239" cy="156" r="7" fill="#D9005B"/>
  <circle cx="263" cy="156" r="7" fill="#C8D900"/>
  <rect x="211" y="212" width="146" height="110" rx="18" fill="#EFF6FF"/>
  <rect x="377" y="212" width="177" height="24" rx="12" fill="#1E90FF" fill-opacity="0.14"/>
  <rect x="377" y="252" width="132" height="16" rx="8" fill="#10203A"/>
  <rect x="377" y="280" width="148" height="12" rx="6" fill="#9BB0CB"/>
  <rect x="377" y="304" width="130" height="12" rx="6" fill="#C4D2E2"/>
  <rect x="377" y="333" width="91" height="30" rx="15" fill="#0B5FC7"/>
  <rect x="600" y="171" width="158" height="225" rx="28" fill="url(#accent)"/>
  <rect x="613" y="184" width="132" height="198" rx="22" fill="#FFFFFF"/>
  <rect x="628" y="210" width="102" height="78" rx="16" fill="#E8F4FF"/>
  <rect x="628" y="308" width="76" height="12" rx="6" fill="#10203A"/>
  <rect x="628" y="330" width="94" height="10" rx="5" fill="#9AB0CC"/>
  <rect x="628" y="349" width="82" height="10" rx="5" fill="#C3D4E6"/>
  <ellipse cx="205" cy="516" rx="121" ry="32" fill="#D7E9FF"/>
  <ellipse cx="422" cy="526" rx="155" ry="40" fill="#E8F4FF"/>
  <path d="M367 462C367 431 392 406 423 406C454 406 479 431 479 462V492H367V462Z" fill="#1E90FF"/>
  <circle cx="423" cy="383" r="31" fill="#F7C6A8"/>
  <path d="M394 373C400 345 446 345 453 373C447 360 435 353 423 353C411 353 400 360 394 373Z" fill="#10203A"/>
  <path d="M391 492H455L445 593H401L391 492Z" fill="#10203A"/>
  <path d="M408 594H441" stroke="#10203A" stroke-width="12" stroke-linecap="round"/>
  <path d="M394 430L352 464L337 446L383 403" fill="#1E90FF"/>
  <rect x="312" y="434" width="56" height="26" rx="13" transform="rotate(-20 312 434)" fill="#FFFFFF" stroke="#DCE8F5" stroke-width="2"/>
  <rect x="318" y="442" width="27" height="6" rx="3" transform="rotate(-20 318 442)" fill="#9AB0CC"/>
  <circle cx="583" cy="506" r="22" fill="#FFFFFF" stroke="#DCE8F5" stroke-width="2"/>
  <path d="M576 506L582 512L592 500" stroke="#0B5FC7" stroke-width="5" stroke-linecap="round" stroke-linejoin="round"/>
  <path d="M152 448C152 428 168 412 188 412C208 412 224 428 224 448V481H152V448Z" fill="#D9005B"/>
  <circle cx="188" cy="392" r="24" fill="#F7C6A8"/>
  <path d="M165 385C170 365 205 365 210 385C205 375 197 370 188 370C179 370 171 375 165 385Z" fill="#10203A"/>
  <path d="M160 481H216L210 560H166L160 481Z" fill="#3B495E"/>
  <path d="M171 560H204" stroke="#3B495E" stroke-width="10" stroke-linecap="round"/>
  <path d="M217 437L259 422L267 445L226 458" fill="#D9005B"/>
</svg>
