<svg width="900" height="675" viewBox="0 0 900 675" fill="none" xmlns="http://www.w3.org/2000/svg" role="img" aria-labelledby="title desc">
  <title id="title">Web design illustration</title>
  <desc id="desc">A modern illustration of website planning with desktop and mobile layouts.</desc>
  <defs>
    <linearGradient id="bg" x1="115" y1="70" x2="764" y2="583" gradientUnits="userSpaceOnUse">
      <stop stop-color="#E8F4FF"/>
      <stop offset="1" stop-color="#EDF8FF"/>
    </linearGradient>
    <linearGradient id="panel" x1="214" y1="123" x2="696" y2="497" gradientUnits="userSpaceOnUse">
      <stop stop-color="#FFFFFF"/>
      <stop offset="1" stop-color="#F7FBFF"/>
    </linearGradient>
    <linearGradient id="accent" x1="591" y1="161" x2="743" y2="327" gradientUnits="userSpaceOnUse">
      <stop stop-color="#1E90FF"/>
      <stop offset="1" stop-color="#0B5FC7"/>
    </linearGradient>
  </defs>
  <rect width="900" height="675" rx="42" fill="url(#bg)"/>
  <circle cx="162" cy="128" r="62" fill="#D9ECFF"/>
  <circle cx="756" cy="545" r="72" fill="#DFF6EE"/>
  <rect x="133" y="118" width="546" height="374" rx="30" fill="url(#panel)" stroke="#DCE8F5" stroke-width="2"/>
  <rect x="133" y="118" width="546" height="52" rx="30" fill="#10203A"/>
  <circle cx="171" cy="144" r="8" fill="#F79400"/>
  <circle cx="198" cy="144" r="8" fill="#D9005B"/>
  <circle cx="225" cy="144" r="8" fill="#C8D900"/>
  <rect x="173" y="205" width="212" height="178" rx="20" fill="#EFF6FF"/>
  <rect x="403" y="205" width="236" height="52" rx="16" fill="#1E90FF" fill-opacity="0.12"/>
  <rect x="403" y="274" width="178" height="20" rx="10" fill="#10203A"/>
  <rect x="403" y="311" width="211" height="15" rx="7.5" fill="#8AA4C6"/>
  <rect x="403" y="338" width="189" height="15" rx="7.5" fill="#B3C6DD"/>
  <rect x="403" y="374" width="122" height="40" rx="14" fill="#0B5FC7"/>
  <rect x="192" y="227" width="82" height="18" rx="9" fill="#8FB4FF"/>
  <rect x="192" y="259" width="136" height="16" rx="8" fill="#10203A"/>
  <rect x="192" y="289" width="113" height="12" rx="6" fill="#A5B9D3"/>
  <rect x="192" y="313" width="121" height="12" rx="6" fill="#C3D4E6"/>
  <rect x="192" y="343" width="91" height="18" rx="9" fill="#D9005B" fill-opacity="0.18"/>
  <rect x="570" y="151" width="182" height="332" rx="28" fill="url(#accent)"/>
  <rect x="584" y="175" width="154" height="286" rx="22" fill="#FFFFFF"/>
  <rect x="604" y="202" width="114" height="110" rx="16" fill="#E8F4FF"/>
  <rect x="604" y="331" width="90" height="14" rx="7" fill="#10203A"/>
  <rect x="604" y="357" width="110" height="12" rx="6" fill="#A5B9D3"/>
  <rect x="604" y="380" width="98" height="12" rx="6" fill="#C3D4E6"/>
  <rect x="604" y="411" width="82" height="28" rx="14" fill="#D9005B"/>
  <path d="M250 510C318 457 413 430 523 431C610 431 679 445 736 472" stroke="#1E90FF" stroke-width="18" stroke-linecap="round" stroke-dasharray="1 34"/>
  <rect x="247" y="478" width="156" height="72" rx="22" fill="#FFFFFF" stroke="#DCE8F5" stroke-width="2"/>
  <rect x="273" y="499" width="61" height="12" rx="6" fill="#0B5FC7"/>
  <rect x="273" y="521" width="103" height="10" rx="5" fill="#A5B9D3"/>
  <rect x="672" y="471" width="126" height="68" rx="22" fill="#FFFFFF" stroke="#DCE8F5" stroke-width="2"/>
  <rect x="696" y="492" width="49" height="12" rx="6" fill="#D9005B"/>
  <rect x="696" y="514" width="74" height="10" rx="5" fill="#A5B9D3"/>
</svg>
