<svg width="900" height="675" viewBox="0 0 900 675" fill="none" xmlns="http://www.w3.org/2000/svg" role="img" aria-labelledby="title desc">
  <title id="title">Website maintenance illustration</title>
  <desc id="desc">A colourful illustration showing a person monitoring website maintenance, updates and security.</desc>
  <defs>
    <linearGradient id="bg" x1="109" y1="84" x2="783" y2="583" gradientUnits="userSpaceOnUse">
      <stop stop-color="#EFF6FF"/>
      <stop offset="1" stop-color="#F5FAFF"/>
    </linearGradient>
    <linearGradient id="shield" x1="593" y1="194" x2="749" y2="343" gradientUnits="userSpaceOnUse">
      <stop stop-color="#1E90FF"/>
      <stop offset="1" stop-color="#0B5FC7"/>
    </linearGradient>
  </defs>
  <rect width="900" height="675" rx="42" fill="url(#bg)"/>
  <circle cx="164" cy="145" r="60" fill="#DFF6EE"/>
  <circle cx="742" cy="528" r="78" fill="#E7F0FF"/>
  <rect x="112" y="156" width="402" height="258" rx="28" fill="#10203A"/>
  <rect x="130" y="174" width="366" height="222" rx="22" fill="#FFFFFF"/>
  <rect x="159" y="208" width="130" height="90" rx="18" fill="#E8F4FF"/>
  <path d="M223 229C240 229 255 244 255 261C255 278 240 293 223 293C206 293 191 278 191 261" stroke="#0B5FC7" stroke-width="14" stroke-linecap="round"/>
  <path d="M226 218L251 231L239 255" stroke="#1E90FF" stroke-width="12" stroke-linecap="round" stroke-linejoin="round"/>
  <rect x="320" y="214" width="142" height="16" rx="8" fill="#10203A"/>
  <rect x="320" y="242" width="116" height="12" rx="6" fill="#90A5C2"/>
  <rect x="320" y="264" width="96" height="12" rx="6" fill="#C0D0E3"/>
  <rect x="159" y="329" width="303" height="16" rx="8" fill="#A5B9D3"/>
  <path d="M573 470C573 438 598 412 629 412C661 412 686 438 686 470V506H573V470Z" fill="#1E90FF"/>
  <circle cx="629" cy="388" r="31" fill="#F7C6A8"/>
  <path d="M598 379C605 352 653 352 660 379C653 366 642 359 629 359C616 359 605 366 598 379Z" fill="#10203A"/>
  <path d="M593 506H665L655 592H603L593 506Z" fill="#10203A"/>
  <path d="M610 592H647" stroke="#10203A" stroke-width="12" stroke-linecap="round"/>
  <path d="M557 459L514 431L526 411L572 441" fill="#1E90FF"/>
  <circle cx="672" cy="232" r="76" fill="url(#shield)"/>
  <path d="M641 229C641 195 668 168 702 168C736 168 763 195 763 229C763 263 736 290 702 290" stroke="#FFFFFF" stroke-width="16" stroke-linecap="round"/>
  <path d="M700 149L728 165L713 192" stroke="#FFFFFF" stroke-width="13" stroke-linecap="round" stroke-linejoin="round"/>
  <path d="M681 230L696 245L724 217" stroke="#FFFFFF" stroke-width="13" stroke-linecap="round" stroke-linejoin="round"/>
  <rect x="585" y="306" width="188" height="118" rx="26" fill="#FFFFFF" stroke="#DCE8F5" stroke-width="2"/>
  <rect x="611" y="331" width="138" height="16" rx="8" fill="#10203A"/>
  <rect x="611" y="361" width="94" height="12" rx="6" fill="#1E90FF" fill-opacity="0.2"/>
  <rect x="611" y="383" width="112" height="12" rx="6" fill="#A5B9D3"/>
  <circle cx="550" cy="535" r="22" fill="#FFFFFF" stroke="#DCE8F5" stroke-width="2"/>
  <path d="M543 535L549 541L559 529" stroke="#0B5FC7" stroke-width="5" stroke-linecap="round" stroke-linejoin="round"/>
</svg>
