<svg width="900" height="675" viewBox="0 0 900 675" fill="none" xmlns="http://www.w3.org/2000/svg" role="img" aria-labelledby="title desc">
  <title id="title">Website redesign illustration</title>
  <desc id="desc">A colourful illustration showing a person reviewing an older website and transforming it into a cleaner redesign.</desc>
  <defs>
    <linearGradient id="bg" x1="122" y1="95" x2="769" y2="571" gradientUnits="userSpaceOnUse">
      <stop stop-color="#EEF5FF"/>
      <stop offset="1" stop-color="#F8FBFF"/>
    </linearGradient>
    <linearGradient id="arrow" x1="369" y1="258" x2="520" y2="258" gradientUnits="userSpaceOnUse">
      <stop stop-color="#F79400"/>
      <stop offset="1" stop-color="#D9005B"/>
    </linearGradient>
  </defs>
  <rect width="900" height="675" rx="42" fill="url(#bg)"/>
  <circle cx="184" cy="130" r="58" fill="#FDEBD0"/>
  <circle cx="719" cy="527" r="76" fill="#E2EDFF"/>
  <rect x="116" y="155" width="230" height="270" rx="26" fill="#FFFFFF" stroke="#DCE8F5" stroke-width="2"/>
  <rect x="116" y="155" width="230" height="44" rx="26" fill="#42526A"/>
  <rect x="143" y="230" width="176" height="18" rx="9" fill="#C4CEDB"/>
  <rect x="143" y="261" width="98" height="94" rx="16" fill="#E6EDF5"/>
  <rect x="254" y="261" width="65" height="14" rx="7" fill="#95A7BC"/>
  <rect x="254" y="286" width="49" height="12" rx="6" fill="#B7C5D4"/>
  <rect x="254" y="309" width="61" height="12" rx="6" fill="#D2DCE6"/>
  <rect x="143" y="382" width="176" height="16" rx="8" fill="#AAB9C9"/>
  <path d="M377 270C405 239 455 239 483 270" stroke="url(#arrow)" stroke-width="20" stroke-linecap="round"/>
  <path d="M462 237L493 271L461 304" stroke="#D9005B" stroke-width="18" stroke-linecap="round" stroke-linejoin="round"/>
  <rect x="519" y="128" width="260" height="300" rx="30" fill="#10203A"/>
  <rect x="539" y="150" width="220" height="258" rx="24" fill="#FFFFFF"/>
  <rect x="565" y="184" width="168" height="96" rx="18" fill="#E8F4FF"/>
  <rect x="587" y="205" width="84" height="14" rx="7" fill="#1E90FF"/>
  <rect x="587" y="230" width="118" height="12" rx="6" fill="#A5B9D3"/>
  <rect x="587" y="253" width="94" height="12" rx="6" fill="#C3D4E6"/>
  <rect x="565" y="303" width="74" height="66" rx="16" fill="#EFF6FF"/>
  <rect x="651" y="303" width="82" height="66" rx="16" fill="#FCE7F0"/>
  <ellipse cx="468" cy="546" rx="178" ry="44" fill="#EAF4FF"/>
  <path d="M452 447C452 416 477 391 508 391C539 391 564 416 564 447V485H452V447Z" fill="#D9005B"/>
  <circle cx="508" cy="367" r="31" fill="#F7C6A8"/>
  <path d="M477 360C484 333 532 333 539 360C532 347 521 340 508 340C495 340 484 347 477 360Z" fill="#10203A"/>
  <path d="M472 485H544L533 592H483L472 485Z" fill="#10203A"/>
  <path d="M490 592H527" stroke="#10203A" stroke-width="12" stroke-linecap="round"/>
  <path d="M552 428L615 389L627 409L562 446" fill="#D9005B"/>
  <rect x="604" y="379" width="66" height="30" rx="15" transform="rotate(-22 604 379)" fill="#FFFFFF" stroke="#DCE8F5" stroke-width="2"/>
  <rect x="613" y="390" width="30" height="6" rx="3" transform="rotate(-22 613 390)" fill="#A5B9D3"/>
  <circle cx="674" cy="505" r="22" fill="#FFFFFF" stroke="#DCE8F5" stroke-width="2"/>
  <path d="M666 505L672 511L682 499" stroke="#0B5FC7" stroke-width="5" stroke-linecap="round" stroke-linejoin="round"/>
</svg>
