<svg width="900" height="675" viewBox="0 0 900 675" fill="none" xmlns="http://www.w3.org/2000/svg" role="img" aria-labelledby="title desc">
  <title id="title">Website redesign illustration</title>
  <desc id="desc">A modern illustration showing an outdated website layout transforming into a cleaner redesign.</desc>
  <defs>
    <linearGradient id="bg" x1="122" y1="95" x2="769" y2="571" gradientUnits="userSpaceOnUse">
      <stop stop-color="#EEF5FF"/>
      <stop offset="1" stop-color="#F8FBFF"/>
    </linearGradient>
    <linearGradient id="arrow" x1="369" y1="258" x2="520" y2="258" gradientUnits="userSpaceOnUse">
      <stop stop-color="#F79400"/>
      <stop offset="1" stop-color="#D9005B"/>
    </linearGradient>
  </defs>
  <rect width="900" height="675" rx="42" fill="url(#bg)"/>
  <circle cx="186" cy="131" r="58" fill="#FDEBD0"/>
  <circle cx="719" cy="527" r="76" fill="#E2EDFF"/>
  <rect x="110" y="138" width="278" height="372" rx="28" fill="#FFFFFF" stroke="#DCE8F5" stroke-width="2"/>
  <rect x="110" y="138" width="278" height="50" rx="28" fill="#42526A"/>
  <rect x="143" y="219" width="212" height="24" rx="12" fill="#C4CEDB"/>
  <rect x="143" y="262" width="121" height="118" rx="18" fill="#E6EDF5"/>
  <rect x="283" y="262" width="72" height="16" rx="8" fill="#95A7BC"/>
  <rect x="283" y="290" width="58" height="14" rx="7" fill="#B7C5D4"/>
  <rect x="283" y="316" width="70" height="14" rx="7" fill="#D2DCE6"/>
  <rect x="143" y="408" width="212" height="18" rx="9" fill="#AAB9C9"/>
  <rect x="143" y="441" width="149" height="16" rx="8" fill="#C8D4E1"/>
  <rect x="143" y="473" width="96" height="20" rx="10" fill="#BBC9D7"/>
  <path d="M414 253C442 222 493 222 521 253" stroke="url(#arrow)" stroke-width="20" stroke-linecap="round"/>
  <path d="M500 220L531 254L499 288" stroke="#D9005B" stroke-width="18" stroke-linecap="round" stroke-linejoin="round"/>
  <rect x="548" y="122" width="246" height="406" rx="30" fill="#10203A"/>
  <rect x="568" y="145" width="206" height="366" rx="24" fill="#FFFFFF"/>
  <rect x="593" y="178" width="156" height="106" rx="18" fill="#E8F4FF"/>
  <rect x="613" y="198" width="73" height="14" rx="7" fill="#1E90FF"/>
  <rect x="613" y="225" width="112" height="12" rx="6" fill="#A5B9D3"/>
  <rect x="613" y="247" width="96" height="12" rx="6" fill="#C3D4E6"/>
  <rect x="593" y="308" width="82" height="74" rx="16" fill="#EFF6FF"/>
  <rect x="687" y="308" width="62" height="74" rx="16" fill="#FCE7F0"/>
  <rect x="593" y="404" width="156" height="18" rx="9" fill="#10203A"/>
  <rect x="593" y="437" width="122" height="15" rx="7.5" fill="#90A5C2"/>
  <rect x="593" y="467" width="96" height="30" rx="15" fill="#0B5FC7"/>
  <rect x="335" y="480" width="238" height="82" rx="24" fill="#FFFFFF" stroke="#DCE8F5" stroke-width="2"/>
  <rect x="364" y="506" width="86" height="14" rx="7" fill="#10203A"/>
  <rect x="364" y="530" width="140" height="12" rx="6" fill="#A5B9D3"/>
  <circle cx="533" cy="522" r="18" fill="#D9005B" fill-opacity="0.16"/>
  <path d="M525 523L531 529L542 515" stroke="#D9005B" stroke-width="6" stroke-linecap="round" stroke-linejoin="round"/>
</svg>
