<svg xmlns="http://www.w3.org/2000/svg" viewBox="0 0 960 720" role="img" aria-labelledby="title desc">
  <title id="title">Web design and hosting workspace</title>
  <desc id="desc">A modern website dashboard, hosting cards and design tools arranged on a clean workspace.</desc>
  <defs>
    <linearGradient id="bg" x1="0" x2="1" y1="0" y2="1">
      <stop offset="0" stop-color="#e8f8f4"/>
      <stop offset="1" stop-color="#f7fbff"/>
    </linearGradient>
    <linearGradient id="screen" x1="0" x2="1" y1="0" y2="1">
      <stop offset="0" stop-color="#10233f"/>
      <stop offset="1" stop-color="#0c7a7b"/>
    </linearGradient>
  </defs>
  <rect width="960" height="720" fill="url(#bg)"/>
  <rect x="96" y="92" width="768" height="536" rx="32" fill="#fff"/>
  <rect x="134" y="136" width="500" height="318" rx="20" fill="url(#screen)"/>
  <rect x="166" y="174" width="170" height="16" rx="8" fill="#f4b942"/>
  <rect x="166" y="216" width="332" height="34" rx="17" fill="#fff" opacity=".92"/>
  <rect x="166" y="270" width="270" height="16" rx="8" fill="#fff" opacity=".62"/>
  <rect x="166" y="302" width="320" height="16" rx="8" fill="#fff" opacity=".44"/>
  <rect x="166" y="350" width="118" height="46" rx="8" fill="#f4b942"/>
  <rect x="306" y="350" width="118" height="46" rx="8" fill="#fff" opacity=".16"/>
  <rect x="674" y="136" width="148" height="148" rx="20" fill="#f6f9fc" stroke="#dbe4ee"/>
  <circle cx="748" cy="194" r="34" fill="#0c7a7b"/>
  <path d="M730 197l13 13 30-36" fill="none" stroke="#fff" stroke-width="12" stroke-linecap="round" stroke-linejoin="round"/>
  <rect x="674" y="306" width="148" height="148" rx="20" fill="#f6f9fc" stroke="#dbe4ee"/>
  <path d="M716 392h64M716 368h64M716 344h64" stroke="#14213d" stroke-width="14" stroke-linecap="round"/>
  <rect x="134" y="490" width="208" height="92" rx="18" fill="#f6f9fc" stroke="#dbe4ee"/>
  <rect x="374" y="490" width="208" height="92" rx="18" fill="#f6f9fc" stroke="#dbe4ee"/>
  <rect x="614" y="490" width="208" height="92" rx="18" fill="#f6f9fc" stroke="#dbe4ee"/>
  <rect x="166" y="522" width="94" height="12" rx="6" fill="#0c7a7b"/>
  <rect x="406" y="522" width="94" height="12" rx="6" fill="#e8674a"/>
  <rect x="646" y="522" width="94" height="12" rx="6" fill="#f4b942"/>
  <rect x="166" y="550" width="132" height="10" rx="5" fill="#697386" opacity=".45"/>
  <rect x="406" y="550" width="132" height="10" rx="5" fill="#697386" opacity=".45"/>
  <rect x="646" y="550" width="132" height="10" rx="5" fill="#697386" opacity=".45"/>
</svg>

