<svg width="204" height="44" viewBox="0 0 204 44" fill="none" xmlns="http://www.w3.org/2000/svg" role="img" aria-labelledby="iwebnodeTitle iwebnodeDesc">
  <title id="iwebnodeTitle">iWebNode logo</title>
  <desc id="iwebnodeDesc">Stylised iWebNode wordmark in a rounded rectangle.</desc>
  <rect x="1" y="1" width="202" height="42" rx="21" fill="url(#iwebnodeFill)"/>
  <rect x="1" y="1" width="202" height="42" rx="21" stroke="white" stroke-opacity="0.18" stroke-width="2"/>
  <circle cx="24" cy="22" r="10" fill="white" fill-opacity="0.14"/>
  <circle cx="24" cy="18" r="3.2" fill="white"/>
  <path d="M24 23.8V29.6" stroke="white" stroke-width="3.2" stroke-linecap="round"/>
  <path d="M47.95 29V15.2H51.58V29H47.95ZM47.95 13.14V10H51.58V13.14H47.95ZM55.1862 29V15.2H58.6862V17.16C59.0862 16.4933 59.6728 15.9533 60.4462 15.54C61.2195 15.1267 62.1062 14.92 63.1062 14.92C64.2262 14.92 65.2195 15.1733 66.0862 15.68C66.9662 16.1733 67.6528 16.8867 68.1462 17.82C68.6395 18.7533 68.8862 19.8667 68.8862 21.16V29H65.2862V21.68C65.2862 20.4933 64.9862 19.5667 64.3862 18.9C63.7995 18.22 62.9862 17.88 61.9462 17.88C60.8928 17.88 60.0528 18.22 59.4262 18.9C58.8128 19.5667 58.5062 20.4933 58.5062 21.68V29H55.1862ZM77.3428 29.28C76.0495 29.28 74.8828 28.9667 73.8428 28.34C72.8162 27.7 72.0028 26.8333 71.4028 25.74C70.8162 24.6333 70.5228 23.4 70.5228 22.04C70.5228 20.68 70.8162 19.4533 71.4028 18.36C72.0028 17.2667 72.8162 16.4067 73.8428 15.78C74.8828 15.14 76.0495 14.82 77.3428 14.82C78.3828 14.82 79.3028 15.0267 80.1028 15.44C80.9162 15.84 81.5562 16.4 82.0228 17.12V9.8H85.6228V29H82.1028V26.92C81.6762 27.6267 81.0495 28.2067 80.2228 28.66C79.4095 29.0733 78.4495 29.28 77.3428 29.28ZM78.1228 26.14C79.2295 26.14 80.1362 25.7667 80.8428 25.02C81.5495 24.2733 81.9028 23.28 81.9028 22.04C81.9028 20.8 81.5495 19.8067 80.8428 19.06C80.1362 18.3133 79.2295 17.94 78.1228 17.94C77.0295 17.94 76.1228 18.3133 75.4028 19.06C74.6962 19.8067 74.3428 20.8 74.3428 22.04C74.3428 23.28 74.6962 24.2733 75.4028 25.02C76.1228 25.7667 77.0295 26.14 78.1228 26.14ZM94.9577 29.28C93.5977 29.28 92.3777 28.9733 91.2977 28.36C90.231 27.7333 89.391 26.88 88.7777 25.8C88.1777 24.72 87.8777 23.4933 87.8777 22.12C87.8777 20.7467 88.171 19.5133 88.7577 18.42C89.3577 17.3267 90.1777 16.4667 91.2177 15.84C92.2577 15.2 93.451 14.88 94.7977 14.88C96.1177 14.88 97.2777 15.1867 98.2777 15.8C99.291 16.4133 100.071 17.2467 100.618 18.3C101.178 19.34 101.458 20.5133 101.458 21.82C101.458 22.0333 101.451 22.2533 101.438 22.48C101.438 22.6933 101.424 22.9333 101.398 23.2H91.4777C91.571 24.16 91.9043 24.9133 92.4777 25.46C93.0643 25.9933 93.7843 26.26 94.6377 26.26C95.2777 26.26 95.831 26.12 96.2977 25.84C96.7777 25.56 97.1377 25.18 97.3777 24.7H101.058C100.791 25.5933 100.351 26.4133 99.7377 27.16C99.1377 27.8933 98.3843 28.48 97.4777 28.92C96.571 29.16 95.731 29.28 94.9577 29.28ZM94.7977 17.88C94.0377 17.88 93.3577 18.0933 92.7577 18.52C92.171 18.9333 91.791 19.5867 91.6177 20.48H97.7577C97.7043 19.6667 97.411 19.0267 96.8777 18.56C96.3443 18.1067 95.651 17.88 94.7977 17.88ZM109.977 29.28C108.617 29.28 107.397 28.9733 106.317 28.36C105.251 27.7333 104.411 26.88 103.797 25.8C103.197 24.72 102.897 23.4933 102.897 22.12C102.897 20.7467 103.191 19.5133 103.777 18.42C104.377 17.3267 105.197 16.4667 106.237 15.84C107.277 15.2 108.471 14.88 109.817 14.88C111.137 14.88 112.297 15.1867 113.297 15.8C114.311 16.4133 115.091 17.2467 115.637 18.3C116.197 19.34 116.477 20.5133 116.477 21.82C116.477 22.0333 116.471 22.2533 116.457 22.48C116.457 22.6933 116.444 22.9333 116.417 23.2H106.497C106.591 24.16 106.924 24.9133 107.497 25.46C108.084 25.9933 108.804 26.26 109.657 26.26C110.297 26.26 110.851 26.12 111.317 25.84C111.797 25.56 112.157 25.18 112.397 24.7H116.077C115.811 25.5933 115.371 26.4133 114.757 27.16C114.157 27.8933 113.404 28.48 112.497 28.92C111.591 29.16 110.751 29.28 109.977 29.28ZM109.817 17.88C109.057 17.88 108.377 18.0933 107.777 18.52C107.191 18.9333 106.811 19.5867 106.637 20.48H112.777C112.724 19.6667 112.431 19.0267 111.897 18.56C111.364 18.1067 110.671 17.88 109.817 17.88Z" fill="white"/>
  <defs>
    <linearGradient id="iwebnodeFill" x1="1" y1="5" x2="211.711" y2="60.73" gradientUnits="userSpaceOnUse">
      <stop stop-color="#1E90FF"/>
      <stop offset="1" stop-color="#0B5FC7"/>
    </linearGradient>
  </defs>
</svg>
